<?xml version="1.0" encoding="UTF-8" standalone="no"?>
<!-- Created with Inkscape (http://www.inkscape.org/) -->

<svg
   width="768"
   height="574.78009"
   viewBox="0 0 768 574.78009"
   version="1.1"
   id="svg1"
   xml:space="preserve"
   xmlns="http://www.w3.org/2000/svg"
   xmlns:svg="http://www.w3.org/2000/svg"><style
     id="style11">
.foreground-elements { 
    fill:color-mix(in oklab, var(--foreground), var(--background) 75%);
}
</style><defs
     id="defs1" /><g
     id="layer2"
     transform="translate(-1.2022892e-5)"><path
       style="display:inline;fill-opacity:1;stroke-width:15.1181;stroke-miterlimit:8;paint-order:stroke fill markers"
       id="background"
       width="432.78571"
       height="323.90182"
       x="168.11433"
       y="125.19819"
       d="m 181.63889,125.19819 h 405.7366 a 13.524553,13.524553 45 0 1 13.52455,13.52455 v 296.85272 a 13.524553,13.524553 135 0 1 -13.52455,13.52455 H 181.63889 A 13.524553,13.524553 45 0 1 168.11433,435.57546 V 138.72274 a 13.524553,13.524553 135 0 1 13.52456,-13.52455 z"
       transform="matrix(1.7745503,0,0,1.7745503,-298.32733,-222.17049)" /><g
       id="foreground-elements"
       transform="translate(6.2970535,-11.576921)"
       style="fill-rule:nonzero"
       class="  foreground-elements"><path
         style="fill-opacity:1;fill-rule:nonzero;stroke-width:15.1181;stroke-miterlimit:8;paint-order:stroke fill markers"
         id="rect2"
         width="145.23212"
         height="511.33118"
         x="154.4679"
         y="43.200001"
         d="m 166.4679,43.200001 h 121.23211 a 12,12 45 0 1 12,12 V 542.53118 a 12,12 135 0 1 -12,12 H 166.4679 a 12,12 45 0 1 -12,-12 V 55.200001 a 12,12 135 0 1 12,-12 z"
         transform="translate(-98.915183,0.71133041)" /><circle
         style="fill-opacity:1;fill-rule:nonzero;stroke-width:15.1181;stroke-miterlimit:8;paint-order:stroke fill markers"
         id="path2"
         cx="27.683231"
         cy="62.685017"
         r="18.773685" /><path
         style="fill-opacity:1;fill-rule:nonzero;stroke-width:15.1181;stroke-miterlimit:8;paint-order:stroke fill markers"
         id="circle2"
         d="m 46.456917,137.14336 c 0,10.36842 -8.405265,18.77368 -18.773686,18.77368 -10.36842,0 -18.7736851,-8.40526 -18.7736851,-18.77368 0,-10.36842 8.4052651,-18.77369 18.7736851,-18.77369 10.368421,0 18.773686,8.40527 18.773686,18.77369 z m 0,48.54737 c 0,10.36842 -8.405265,18.77368 -18.773686,18.77368 -10.36842,0 -18.7736851,-8.40526 -18.7736851,-18.77368 0,-10.36842 8.4052651,-18.77369 18.7736851,-18.77369 10.368421,0 18.773686,8.40527 18.773686,18.77369 z m 0,48.54737 c 0,10.36842 -8.405265,18.77368 -18.773686,18.77368 -10.36842,0 -18.7736851,-8.40526 -18.7736851,-18.77368 0,-10.36842 8.4052651,-18.77369 18.7736851,-18.77369 10.368421,0 18.773686,8.40527 18.773686,18.77369 z m 0,48.54737 c 0,10.36842 -8.405265,18.77368 -18.773686,18.77368 -10.36842,0 -18.7736851,-8.40526 -18.7736851,-18.77368 0,-10.36842 8.4052651,-18.77369 18.7736851,-18.77369 10.368421,0 18.773686,8.40527 18.773686,18.77369 z m 0,48.54737 c 0,10.36842 -8.405265,18.77369 -18.773686,18.77369 -10.36842,0 -18.7736851,-8.40527 -18.7736851,-18.77369 0,-10.36842 8.4052651,-18.77369 18.7736851,-18.77369 10.368421,0 18.773686,8.40527 18.773686,18.77369 z m 0,48.54737 c 0,10.36842 -8.405265,18.77369 -18.773686,18.77369 -10.36842,0 -18.7736851,-8.40527 -18.7736851,-18.77369 0,-10.36842 8.4052651,-18.77368 18.7736851,-18.77368 10.368421,0 18.773686,8.40526 18.773686,18.77368 z m 0,48.54737 c 0,10.36842 -8.405265,18.77369 -18.773686,18.77369 -10.36842,0 -18.7736851,-8.40527 -18.7736851,-18.77369 0,-10.36842 8.4052651,-18.77368 18.7736851,-18.77368 10.368421,0 18.773686,8.40526 18.773686,18.77368 z" /><path
         style="fill-opacity:1;fill-rule:nonzero;stroke-width:15.1181;stroke-miterlimit:8;paint-order:stroke fill markers"
         id="path3"
         width="536.61572"
         height="32.124889"
         x="154.4679"
         y="43.200001"
         d="m 166.4679,43.200001 h 512.61572 a 12,12 45 0 1 12,12 v 8.124889 a 12,12 135 0 1 -12,12 H 166.4679 a 12,12 45 0 1 -12,-12 v -8.124889 a 12,12 135 0 1 12,-12 z"
         transform="translate(55.412729,0.71133041)" /><path
         style="fill-opacity:1;fill-rule:nonzero;stroke-width:15.1181;stroke-miterlimit:8;paint-order:stroke fill markers"
         id="path5"
         width="536.61572"
         height="32.124889"
         x="154.4679"
         y="43.200001"
         d="m 166.4679,43.200001 h 512.61572 a 12,12 45 0 1 12,12 v 8.124889 a 12,12 135 0 1 -12,12 H 166.4679 a 12,12 45 0 1 -12,-12 v -8.124889 a 12,12 135 0 1 12,-12 z"
         transform="translate(55.412729,479.91762)" /><g
         id="g10"
         transform="translate(93.417431,33.800038)"
         style="fill-opacity:1;fill-rule:nonzero"><g
           style="fill-opacity:1;fill-rule:nonzero"
           id="g8"
           transform="matrix(0.13010937,0,0,0.13010937,305.02361,319.22625)"><path
             d="M 159,-120 V -240 H 283 L 181,-574 q -27,-15 -44.5,-44 -17.5,-29 -17.5,-62 0,-50 35,-85 35,-35 85,-35 39,0 69.5,22.5 30.5,22.5 42.5,57.5 h 128 v -40 q 0,-17 11.5,-28.5 11.5,-11.5 28.5,-11.5 9,0 17.5,4 8.5,4 14.5,12 l 68,-64 q 9,-9 21.5,-11.5 12.5,-2.5 24.5,3.5 l 156,72 q 12,6 16.5,17.5 4.5,11.5 -0.5,22.5 -6,12 -17.5,15.5 Q 808,-725 797,-730 l -144,-66 -94,88 v 56 l 94,86 144,-66 q 11,-5 23,-1 12,4 17,15 6,12 1,23 -5,11 -17,17 l -156,74 q -12,6 -24.5,3.5 Q 628,-503 619,-512 l -68,-64 q -6,6 -14.5,11 -8.5,5 -17.5,5 -17,0 -28.5,-11.5 Q 479,-583 479,-600 v -40 H 351 q -3,8 -6.5,15 -3.5,7 -9.5,15 l 200,370 h 144 v 120 z m 80,-520 q 17,0 28.5,-11.5 Q 279,-663 279,-680 279,-697 267.5,-708.5 256,-720 239,-720 q -17,0 -28.5,11.5 -11.5,11.5 -11.5,28.5 0,17 11.5,28.5 11.5,11.5 28.5,11.5 z m 126,400 h 78 L 271,-560 h -4 z m 78,0 z"
             id="path1"
             style="fill-opacity:1;fill-rule:nonzero" /></g><g
           style="fill-opacity:1;fill-rule:nonzero"
           id="g9"
           transform="matrix(0.08625312,0,0,0.08625312,412.03292,302.22886)" /><g
           style="fill-opacity:1;fill-rule:nonzero"
           id="g11"
           transform="matrix(0.12904955,0,0,0.12904955,463.5346,429.89329)"><path
             d="m -410.98531,-818.60883 v -273.24847 l -238.90572,-138.1173 v 239.65228 q 0,16.42477 7.83909,29.86321 7.8391,13.43845 22.02412,21.65084 z m 59.72643,0 209.0425,-120.19944 q 14.18503,-8.21239 22.02413,-21.65084 7.83909,-13.43844 7.83909,-29.86321 v -239.65228 l -238.90572,138.1173 z m 118.70628,-410.61917 88.09648,-51.5141 -206.80276,-118.7063 q -14.18503,-8.2124 -29.86322,-8.2124 -15.67818,0 -29.86321,8.2124 l -58.97985,33.5961 z m -148.5695,85.8567 88.84307,-50.7675 -236.66598,-137.3708 -89.58964,51.5141 z"
             id="path1-3"
             style="fill-opacity:1;fill-rule:nonzero;stroke-width:0.74658" /></g></g></g></g><rect
     style="display:none;fill:none;fill-opacity:1;stroke:#ffffff;stroke-width:3.77953;stroke-miterlimit:8;stroke-dasharray:none;stroke-opacity:1;paint-order:stroke fill markers"
     id="rect10"
     width="536.61572"
     height="430.082"
     x="216.17766"
     y="72.959007" /></svg>
