<svg width="508" height="513" viewBox="0 0 508 513" fill="none" xmlns="http://www.w3.org/2000/svg">
<path d="M492.807 225.657C512.064 241.651 512.064 271.204 492.807 287.198L477.306 300.072C464.793 310.466 459.819 327.403 464.728 342.912L470.807 362.122C478.36 385.989 462.383 410.85 437.535 413.894L417.535 416.345C401.389 418.323 388.048 429.882 383.792 445.583L378.521 465.031C371.972 489.192 345.09 501.469 322.541 490.596L304.391 481.844C289.738 474.779 272.266 477.291 260.197 488.198L245.249 501.709C226.676 518.494 197.424 514.288 184.333 492.95L173.797 475.776C165.29 461.91 149.233 454.577 133.183 457.228L113.303 460.512C88.6044 464.592 66.2698 445.239 66.793 420.211L67.2141 400.066C67.554 383.802 58.0107 368.952 43.0754 362.505L24.576 354.52C1.5925 344.599 -6.7335 316.243 7.2377 295.471L18.4831 278.752C27.562 265.254 27.562 247.602 18.4831 234.103L7.23771 217.384C-6.73348 196.612 1.59249 168.256 24.576 158.335L43.0754 150.35C58.0107 143.903 67.554 129.053 67.2141 112.789L66.793 92.6444C66.2699 67.6165 88.6044 48.2635 113.303 52.3432L133.183 55.6269C149.233 58.278 165.29 50.9451 173.797 37.0794L184.333 19.9047C197.424 -1.43292 226.676 -5.63874 245.249 11.1464L260.197 24.6568C272.266 35.5642 289.738 38.0763 304.391 31.0109L322.541 22.2593C345.09 11.3865 371.972 23.6632 378.521 47.8246L383.793 67.2722C388.048 82.973 401.389 94.5326 417.535 96.5106L437.535 98.9608C462.383 102.005 478.36 126.866 470.807 150.733L464.728 169.943C459.819 185.452 464.793 202.389 477.306 212.783L492.807 225.657Z" fill="currentColor"/>
</svg>
