<?xml version="1.0" encoding="UTF-8" standalone="no"?>
<svg
   width="306"
   height="71"
   viewBox="0 0 306 71"
   fill="none"
   version="1.1"
   id="svg8"
   sodipodi:docname="wordmark.svg"
   inkscape:version="1.3.2 (091e20ef0f, 2023-11-25)"
   xmlns:inkscape="http://www.inkscape.org/namespaces/inkscape"
   xmlns:sodipodi="http://sodipodi.sourceforge.net/DTD/sodipodi-0.dtd"
   xmlns="http://www.w3.org/2000/svg"
   xmlns:svg="http://www.w3.org/2000/svg">
  <style
     id="style1">
#path1, #path2, #path3, #path4, #path5, #path6, #path7, #path8 { 
    fill:currentColor;
}
</style>
  <defs
     id="defs8" />
  <sodipodi:namedview
     id="namedview8"
     pagecolor="#ffffff"
     bordercolor="#000000"
     borderopacity="0.25"
     inkscape:showpageshadow="2"
     inkscape:pageopacity="0.0"
     inkscape:pagecheckerboard="0"
     inkscape:deskcolor="#d1d1d1"
     inkscape:zoom="1.1666667"
     inkscape:cx="22.714286"
     inkscape:cy="-46.285715"
     inkscape:window-width="1536"
     inkscape:window-height="800"
     inkscape:window-x="0"
     inkscape:window-y="0"
     inkscape:window-maximized="1"
     inkscape:current-layer="svg8" />
  <path
     d="M29.1859 10.3528C29.1859 6.65554 32.1831 3.65833 35.8803 3.65833C39.5775 3.65833 42.5748 6.65553 42.5748 10.3528V35.2355C42.5748 38.9901 41.6757 42.2393 39.8777 44.983C38.0957 47.7107 35.6074 49.8207 32.4127 51.3129C29.218 52.789 25.5095 53.5271 21.2874 53.5271C17.0331 53.5271 13.3086 52.789 10.1139 51.3129C6.9192 49.8207 4.43086 47.7107 2.64888 44.983C0.882961 42.2393 0 38.9901 0 35.2355V10.3528C0 6.65553 2.99721 3.65833 6.69445 3.65833C10.3917 3.65833 13.3889 6.65553 13.3889 10.3528V34.0802C13.3889 35.6045 13.726 36.9684 14.4003 38.1718C15.0745 39.3591 16.0057 40.2898 17.1937 40.9637C18.3977 41.6376 19.7623 41.9745 21.2874 41.9745C22.8285 41.9745 24.1931 41.6376 25.3811 40.9637C26.5691 40.2898 27.5002 39.3591 28.1745 38.1718C28.8487 36.9684 29.1859 35.6045 29.1859 34.0802V10.3528Z"
     fill="currentColor"
     id="path1"
     style="" />
  <path
     d="M55.777 66.8126C52.1064 66.8126 49.1307 63.837 49.1307 60.1664V22.5792C49.1307 18.9352 52.0848 15.9811 55.7289 15.9811H59.1019C60.8831 15.9811 62.327 17.4251 62.327 19.2062V22.26C62.327 22.3546 62.4037 22.4313 62.4983 22.4313C62.5692 22.4313 62.6326 22.3876 62.6588 22.3218C63.1391 21.1128 63.8312 20.0021 64.7351 18.9896C65.6662 17.9306 66.8221 17.0882 68.2027 16.4625C69.5833 15.8207 71.1887 15.4998 73.0188 15.4998C75.459 15.4998 77.7788 16.1496 79.9782 17.4493C82.1936 18.7489 83.9916 20.7947 85.3723 23.5866C86.7689 26.3785 87.4673 30.0047 87.4673 34.4653C87.4673 38.7334 86.801 42.2714 85.4686 45.0793C84.1522 47.8872 82.3862 49.9811 80.1708 51.361C77.9714 52.7409 75.5553 53.4309 72.9225 53.4309C71.1887 53.4309 69.6395 53.1501 68.2749 52.5885C66.9264 52.0109 65.7705 51.2327 64.8073 50.2539C63.8782 49.278 63.1576 48.1787 62.6456 46.9558C62.6275 46.9127 62.5854 46.8844 62.5386 46.8844C62.4749 46.8844 62.4233 46.936 62.4233 46.9997V60.1664C62.4233 63.837 59.4477 66.8126 55.777 66.8126ZM62.1343 34.4653C62.1343 36.2624 62.3671 37.8188 62.8327 39.1345C63.3143 40.4342 63.9886 41.445 64.8555 42.1671C65.7384 42.8731 66.7899 43.226 68.01 43.226C69.2301 43.226 70.2656 42.8811 71.1165 42.1911C71.9834 41.4851 72.6416 40.4823 73.0911 39.1826C73.5566 37.8669 73.7894 36.2945 73.7894 34.4653C73.7894 32.6361 73.5566 31.0717 73.0911 29.7721C72.6416 28.4563 71.9834 27.4535 71.1165 26.7636C70.2656 26.0576 69.2301 25.7046 68.01 25.7046C66.7899 25.7046 65.7384 26.0576 64.8555 26.7636C63.9886 27.4535 63.3143 28.4563 62.8327 29.7721C62.3671 31.0717 62.1343 32.6361 62.1343 34.4653Z"
     fill="currentColor"
     id="path2"
     style="" />
  <path
     d="M99.6822 52.9495C96.0116 52.9495 93.0359 49.9739 93.0359 46.3032V22.4348C93.0359 18.8705 95.9253 15.9811 99.4896 15.9811H101.258C103.846 15.9811 105.943 18.0788 105.943 20.6663V22.7917C105.943 22.9117 106.04 23.009 106.16 23.009C106.259 23.009 106.346 22.9417 106.372 22.8461C107.048 20.3301 108.101 18.483 109.531 17.3049C111.008 16.1015 112.734 15.4998 114.709 15.4998C115.287 15.4998 115.856 15.5479 116.418 15.6442C117.42 15.7832 118.08 16.6965 118.08 17.7073V24.8525C118.08 26.073 116.86 26.9771 115.648 26.8358C114.685 26.7235 113.858 26.6673 113.167 26.6673C111.867 26.6673 110.695 26.9641 109.652 27.5578C108.624 28.1354 107.814 28.9537 107.22 30.0127C106.626 31.0557 106.329 32.2831 106.329 33.6951V46.3032C106.329 49.9739 103.353 52.9495 99.6822 52.9495Z"
     fill="currentColor"
     id="path3"
     style="" />
  <path
     d="M131.655 66.8126C130.13 66.8126 128.677 66.6923 127.297 66.4516C125.206 66.1114 124.142 63.9419 124.762 61.916L125.647 59.0268C126.14 57.4188 127.868 56.616 129.536 56.8244C130.451 56.9368 131.23 56.8726 131.872 56.6319C132.53 56.3912 133.004 55.9339 133.293 55.26C133.479 54.8261 133.499 54.3387 133.348 53.8912L123.398 24.353C122.013 20.2401 125.072 15.9811 129.412 15.9811C132.362 15.9811 134.923 18.0134 135.593 20.886L140.377 41.4015C140.403 41.5116 140.501 41.5894 140.614 41.5894C140.727 41.5894 140.824 41.512 140.85 41.4023L145.708 20.9047C146.392 18.0189 148.969 15.9811 151.934 15.9811C156.31 15.9811 159.395 20.2751 157.999 24.4223L147.356 56.0302C146.682 58.068 145.703 59.8971 144.418 61.5177C143.15 63.1543 141.48 64.446 139.409 65.3926C137.339 66.3393 134.754 66.8126 131.655 66.8126Z"
     fill="currentColor"
     id="path4"
     style="" />
  <path
     d="M170.375 52.9495C167.411 52.9495 165.007 50.5462 165.007 47.5816C165.007 46.3226 165.45 45.1037 166.257 44.138L181.157 26.3215C181.178 26.2961 181.19 26.2641 181.19 26.2309C181.19 26.1529 181.126 26.0897 181.048 26.0897H170.639C167.848 26.0897 165.585 23.8268 165.585 21.0354C165.585 18.244 167.848 15.9811 170.639 15.9811H190.893C194.205 15.9811 196.89 18.6662 196.89 21.9783C196.89 23.3315 196.433 24.6449 195.592 25.7051L182.184 42.6094C182.164 42.6347 182.153 42.666 182.153 42.6982C182.153 42.777 182.217 42.841 182.296 42.841H192.414C195.205 42.841 197.468 45.1038 197.468 47.8952C197.468 50.6866 195.205 52.9495 192.414 52.9495H170.375Z"
     fill="currentColor"
     id="path5"
     style="" />
  <path
     d="M216.212 52.9495C209.92 52.9495 204.819 47.8484 204.819 41.5559V22.6274C204.819 18.9568 207.794 15.9811 211.465 15.9811C215.136 15.9811 218.111 18.9568 218.111 22.6274V51.0506C218.111 52.0993 217.261 52.9495 216.212 52.9495ZM211.465 12.1302C209.667 12.1302 208.126 11.5366 206.842 10.3492C205.557 9.16187 204.915 7.73384 204.915 6.06512C204.915 4.39641 205.557 2.96838 206.842 1.78103C208.126 0.593675 209.667 0 211.465 0C213.279 0 214.82 0.593675 216.089 1.78103C217.373 2.96838 218.015 4.39641 218.015 6.06512C218.015 7.73384 217.373 9.16187 216.089 10.3492C214.82 11.5366 213.279 12.1302 211.465 12.1302Z"
     fill="currentColor"
     id="path6"
     style="" />
  <path
     d="M238.177 32.1548V41.5559C238.177 47.8484 233.076 52.9495 226.783 52.9495C225.734 52.9495 224.884 52.0993 224.884 51.0506V22.2903C224.884 18.8058 227.709 15.9811 231.193 15.9811H233.988C235.929 15.9811 237.502 17.5544 237.502 19.495V22.7842C237.502 22.9083 237.603 23.009 237.727 23.009C237.823 23.009 237.908 22.9477 237.941 22.8573C238.752 20.5869 240.147 18.8003 242.126 17.4974C244.165 16.1656 246.541 15.4998 249.254 15.4998C251.871 15.4998 254.142 16.1015 256.069 17.3049C258.011 18.4922 259.512 20.1288 260.572 22.2147C261.647 24.3006 262.177 26.6833 262.161 29.3629V46.3032C262.161 49.9739 259.185 52.9495 255.515 52.9495C251.844 52.9495 248.868 49.9739 248.868 46.3032V32.1548C248.885 30.3256 248.419 28.8896 247.472 27.8466C246.541 26.8037 245.24 26.2822 243.571 26.2822C242.479 26.2822 241.524 26.5229 240.705 27.0042C239.902 27.4696 239.284 28.1435 238.851 29.026C238.417 29.8924 238.193 30.9353 238.177 32.1548Z"
     fill="currentColor"
     id="path7"
     style="" />
  <path
     d="M286.543 68C282.834 68 279.656 67.4705 277.007 66.4115C274.374 65.3686 272.327 63.9245 270.866 62.0793C268.57 59.172 271.592 55.7735 275.297 55.7735H279.073C280.326 55.7735 281.295 56.8187 282.208 57.6748C282.722 58.1562 283.38 58.5012 284.183 58.7098C285.002 58.9344 285.917 59.0467 286.928 59.0467C288.646 59.0467 290.067 58.6295 291.19 57.7952C292.33 56.9608 292.9 55.4526 292.9 53.2704V46.824C292.9 46.6978 292.798 46.5956 292.672 46.5956C292.577 46.5956 292.493 46.6539 292.457 46.7415C291.975 47.9302 291.256 48.9486 290.299 49.7966C289.304 50.663 288.108 51.3289 286.711 51.7942C285.315 52.2435 283.781 52.4681 282.112 52.4681C279.479 52.4681 277.055 51.8584 274.84 50.639C272.64 49.4195 270.874 47.4861 269.542 44.8386C268.225 42.1911 267.567 38.7334 267.567 34.4653C267.567 30.0047 268.257 26.3785 269.638 23.5866C271.035 20.7947 272.833 18.7489 275.032 17.4493C277.248 16.1496 279.575 15.4998 282.016 15.4998C283.846 15.4998 285.451 15.8207 286.832 16.4625C288.212 17.0882 289.368 17.9306 290.299 18.9896C291.203 20.0021 291.895 21.1128 292.376 22.3218C292.402 22.3876 292.465 22.4313 292.536 22.4313C292.631 22.4313 292.707 22.3546 292.707 22.26V20.2813C292.707 17.9064 294.633 15.9811 297.008 15.9811H299.354C303.024 15.9811 306 18.9568 306 22.6274V53.2704C306 56.3992 305.189 59.0547 303.568 61.2369C301.962 63.4351 299.699 65.1118 296.777 66.2671C293.855 67.4224 290.444 68 286.543 68ZM287.024 43.0335C288.244 43.0335 289.288 42.6966 290.155 42.0227C291.038 41.3327 291.712 40.3539 292.178 39.0864C292.659 37.8027 292.9 36.2624 292.9 34.4653C292.9 32.6361 292.659 31.0717 292.178 29.7721C291.712 28.4563 291.038 27.4535 290.155 26.7636C289.288 26.0576 288.244 25.7046 287.024 25.7046C285.804 25.7046 284.761 26.0576 283.894 26.7636C283.043 27.4535 282.385 28.4563 281.919 29.7721C281.47 31.0717 281.245 32.6361 281.245 34.4653C281.245 36.2945 281.47 37.8509 281.919 39.1345C282.385 40.4021 283.043 41.3728 283.894 42.0467C284.761 42.7046 285.804 43.0335 287.024 43.0335Z"
     fill="currentColor"
     id="path8"
     style="" />
</svg>
