<svg width="100" height="100" viewBox="0 0 100 100" fill="none" xmlns="http://www.w3.org/2000/svg">
<rect width="100" height="100" fill="#1E1E1E" fill-opacity="0.5" style="fill:#1E1E1E;fill:color(display-p3 0.1176 0.1176 0.1176);fill-opacity:0.5;"/>
<g clip-path="url(#clip0_0_1)">
<rect width="100" height="100" rx="5" fill="white" style="fill:white;fill-opacity:1;"/>
<rect width="100" height="100" rx="5" fill="#E69EFF" style="fill:#E69EFF;fill:color(display-p3 0.9014 0.6208 1.0000);fill-opacity:1;"/>
<rect width="100" height="100" rx="5" fill="black" fill-opacity="0.95" style="fill:black;fill-opacity:0.95;" style="mix-blend-mode:saturation"/>
<rect width="100" height="100" rx="5" fill="black" fill-opacity="0.9" style="fill:black;fill-opacity:0.9;"/>
<path d="M118.221 88.1922C119.666 89.3918 119.666 91.6082 118.221 92.8078L114.586 95.8273C113.647 96.6068 113.274 97.8771 113.643 99.0402L115.068 103.546C115.635 105.336 114.437 107.2 112.573 107.429L107.882 108.003C106.671 108.152 105.671 109.019 105.352 110.196L104.115 114.758C103.624 116.57 101.608 117.49 99.9166 116.675L95.6598 114.622C94.5608 114.092 93.2504 114.281 92.3453 115.099L88.8392 118.268C87.4462 119.527 85.2523 119.211 84.2705 117.611L81.7992 113.583C81.1612 112.543 79.9569 111.993 78.7532 112.192L74.0905 112.962C72.2381 113.268 70.563 111.816 70.6022 109.939L70.701 105.214C70.7265 103.995 70.0107 102.881 68.8906 102.397L64.5517 100.524C62.828 99.7803 62.2035 97.6536 63.2513 96.0957L65.8889 92.1743C66.5698 91.1619 66.5698 89.8381 65.8889 88.8257L63.2513 84.9043C62.2035 83.3464 62.828 81.2197 64.5517 80.4757L68.8906 78.6027C70.0107 78.1192 70.7265 77.0055 70.701 75.7857L70.6022 71.0609C70.563 69.1838 72.2381 67.7323 74.0905 68.0383L78.7532 68.8085C79.9569 69.0073 81.1612 68.4573 81.7992 67.4174L84.2705 63.3892C85.2523 61.7889 87.4462 61.4735 88.8392 62.7323L92.3453 65.9011C93.2504 66.7191 94.5608 66.9076 95.6598 66.3776L99.9166 64.325C101.608 63.5096 103.624 64.4303 104.115 66.2424L105.352 70.8037C105.671 71.9813 106.671 72.8482 107.882 72.9966L112.573 73.5712C114.437 73.7995 115.635 75.6641 115.068 77.4541L113.643 81.9598C113.274 83.1229 113.647 84.3932 114.586 85.1727L118.221 88.1922Z" fill="#DCA3FF" style="fill:#DCA3FF;fill:color(display-p3 0.8623 0.6375 1.0000);fill-opacity:1;"/>
<path d="M118.221 88.1922C119.666 89.3918 119.666 91.6082 118.221 92.8078L114.586 95.8273C113.647 96.6068 113.274 97.8771 113.643 99.0402L115.068 103.546C115.635 105.336 114.437 107.2 112.573 107.429L107.882 108.003C106.671 108.152 105.671 109.019 105.352 110.196L104.115 114.758C103.624 116.57 101.608 117.49 99.9166 116.675L95.6598 114.622C94.5608 114.092 93.2504 114.281 92.3453 115.099L88.8392 118.268C87.4462 119.527 85.2523 119.211 84.2705 117.611L81.7992 113.583C81.1612 112.543 79.9569 111.993 78.7532 112.192L74.0905 112.962C72.2381 113.268 70.563 111.816 70.6022 109.939L70.701 105.214C70.7265 103.995 70.0107 102.881 68.8906 102.397L64.5517 100.524C62.828 99.7803 62.2035 97.6536 63.2513 96.0957L65.8889 92.1743C66.5698 91.1619 66.5698 89.8381 65.8889 88.8257L63.2513 84.9043C62.2035 83.3464 62.828 81.2197 64.5517 80.4757L68.8906 78.6027C70.0107 78.1192 70.7265 77.0055 70.701 75.7857L70.6022 71.0609C70.563 69.1838 72.2381 67.7323 74.0905 68.0383L78.7532 68.8085C79.9569 69.0073 81.1612 68.4573 81.7992 67.4174L84.2705 63.3892C85.2523 61.7889 87.4462 61.4735 88.8392 62.7323L92.3453 65.9011C93.2504 66.7191 94.5608 66.9076 95.6598 66.3776L99.9166 64.325C101.608 63.5096 103.624 64.4303 104.115 66.2424L105.352 70.8037C105.671 71.9813 106.671 72.8482 107.882 72.9966L112.573 73.5712C114.437 73.7995 115.635 75.6641 115.068 77.4541L113.643 81.9598C113.274 83.1229 113.647 84.3932 114.586 85.1727L118.221 88.1922Z" fill="black" fill-opacity="0.85" style="fill:black;fill-opacity:0.85;"/>
<path d="M38.2214 8.19219C39.6657 9.39177 39.6657 11.6082 38.2214 12.8078L34.5859 15.8273C33.6474 16.6068 33.2744 17.8771 33.6425 19.0402L35.0684 23.5459C35.6349 25.3359 34.4366 27.2005 32.573 27.4288L27.8822 28.0034C26.6712 28.1518 25.6707 29.0187 25.3515 30.1963L24.1151 34.7576C23.6239 36.5697 21.6078 37.4904 19.9166 36.6749L15.6598 34.6224C14.5608 34.0924 13.2504 34.2809 12.3453 35.0989L8.83915 38.2676C7.44624 39.5265 5.25234 39.2111 4.27051 37.6108L1.79917 33.5826C1.16115 32.5427 -0.0431045 31.9927 -1.24684 32.1915L-5.90952 32.9617C-7.76192 33.2677 -9.43701 31.8162 -9.39777 29.9391L-9.29901 25.2143C-9.27351 23.9945 -9.98926 22.8808 -11.1094 22.3973L-15.4483 20.5243C-17.172 19.7803 -17.7965 17.6536 -16.7487 16.0957L-14.1111 12.1743C-13.4302 11.1619 -13.4302 9.83805 -14.1111 8.82569L-16.7487 4.90431C-17.7965 3.34641 -17.172 1.21974 -15.4483 0.475656L-11.1094 -1.39727C-9.98926 -1.88079 -9.27351 -2.99452 -9.299 -4.21431L-9.39777 -8.93913C-9.437 -10.8162 -7.76191 -12.2677 -5.90952 -11.9617L-1.24684 -11.1915C-0.0430988 -10.9927 1.16116 -11.5427 1.79917 -12.5826L4.27052 -16.6108C5.25234 -18.2111 7.44624 -18.5265 8.83916 -17.2677L12.3453 -14.0989C13.2504 -13.2809 14.5608 -13.0924 15.6598 -13.6224L19.9166 -15.675C21.6078 -16.4904 23.6239 -15.5697 24.1151 -13.7576L25.3515 -9.1963C25.6707 -8.01874 26.6712 -7.15177 27.8822 -7.00342L32.573 -6.42876C34.4366 -6.20046 35.6349 -4.33586 35.0684 -2.54585L33.6425 1.95975C33.2744 3.12294 33.6474 4.39321 34.5859 5.17273L38.2214 8.19219Z" fill="#DCA3FF" style="fill:#DCA3FF;fill:color(display-p3 0.8623 0.6375 1.0000);fill-opacity:1;"/>
<path d="M38.2214 8.19219C39.6657 9.39177 39.6657 11.6082 38.2214 12.8078L34.5859 15.8273C33.6474 16.6068 33.2744 17.8771 33.6425 19.0402L35.0684 23.5459C35.6349 25.3359 34.4366 27.2005 32.573 27.4288L27.8822 28.0034C26.6712 28.1518 25.6707 29.0187 25.3515 30.1963L24.1151 34.7576C23.6239 36.5697 21.6078 37.4904 19.9166 36.6749L15.6598 34.6224C14.5608 34.0924 13.2504 34.2809 12.3453 35.0989L8.83915 38.2676C7.44624 39.5265 5.25234 39.2111 4.27051 37.6108L1.79917 33.5826C1.16115 32.5427 -0.0431045 31.9927 -1.24684 32.1915L-5.90952 32.9617C-7.76192 33.2677 -9.43701 31.8162 -9.39777 29.9391L-9.29901 25.2143C-9.27351 23.9945 -9.98926 22.8808 -11.1094 22.3973L-15.4483 20.5243C-17.172 19.7803 -17.7965 17.6536 -16.7487 16.0957L-14.1111 12.1743C-13.4302 11.1619 -13.4302 9.83805 -14.1111 8.82569L-16.7487 4.90431C-17.7965 3.34641 -17.172 1.21974 -15.4483 0.475656L-11.1094 -1.39727C-9.98926 -1.88079 -9.27351 -2.99452 -9.299 -4.21431L-9.39777 -8.93913C-9.437 -10.8162 -7.76191 -12.2677 -5.90952 -11.9617L-1.24684 -11.1915C-0.0430988 -10.9927 1.16116 -11.5427 1.79917 -12.5826L4.27052 -16.6108C5.25234 -18.2111 7.44624 -18.5265 8.83916 -17.2677L12.3453 -14.0989C13.2504 -13.2809 14.5608 -13.0924 15.6598 -13.6224L19.9166 -15.675C21.6078 -16.4904 23.6239 -15.5697 24.1151 -13.7576L25.3515 -9.1963C25.6707 -8.01874 26.6712 -7.15177 27.8822 -7.00342L32.573 -6.42876C34.4366 -6.20046 35.6349 -4.33586 35.0684 -2.54585L33.6425 1.95975C33.2744 3.12294 33.6474 4.39321 34.5859 5.17273L38.2214 8.19219Z" fill="black" fill-opacity="0.85" style="fill:black;fill-opacity:0.85;"/>
<rect x="63.3731" y="75.5434" width="5" height="15" rx="2.5" transform="rotate(-151 63.3731 75.5434)" fill="#DCA3FF" style="fill:#DCA3FF;fill:color(display-p3 0.8623 0.6375 1.0000);fill-opacity:1;"/>
<rect x="31.4655" y="43.5169" width="5" height="15" rx="2.5" transform="rotate(-151 31.4655 43.5169)" fill="#DCA3FF" style="fill:#DCA3FF;fill:color(display-p3 0.8623 0.6375 1.0000);fill-opacity:1;"/>
<path d="M26.2009 47.7458L66.7224 12.5886C69.0859 10.538 72.6167 13.0218 71.4855 15.9392L62.0373 40.3064C61.4295 41.874 62.2284 43.635 63.8083 44.2101L73.1113 47.596C75.2608 48.3784 75.779 51.1821 74.0512 52.6811L33.1389 88.1773C30.8006 90.206 27.295 87.7942 28.3538 84.8852L37.4879 59.7894C38.0546 58.2325 37.2518 56.5109 35.6949 55.9443L27.1408 52.8308C24.9913 52.0485 24.4731 49.2448 26.2009 47.7458Z" fill="#DCA3FF" style="fill:#DCA3FF;fill:color(display-p3 0.8623 0.6375 1.0000);fill-opacity:1;"/>
<path d="M26.2009 47.7458L66.7224 12.5886C69.0859 10.538 72.6167 13.0218 71.4855 15.9392L62.0373 40.3064C61.4295 41.874 62.2284 43.635 63.8083 44.2101L73.1113 47.596C75.2608 48.3784 75.779 51.1821 74.0512 52.6811L33.1389 88.1773C30.8006 90.206 27.295 87.7942 28.3538 84.8852L37.4879 59.7894C38.0546 58.2325 37.2518 56.5109 35.6949 55.9443L27.1408 52.8308C24.9913 52.0485 24.4731 49.2448 26.2009 47.7458Z" fill="black" fill-opacity="0.85" style="fill:black;fill-opacity:0.85;"/>
<path d="M26.1358 51.9378L59.9368 10.2783C61.9083 7.84845 65.8168 9.68133 65.2093 12.7509L60.136 38.3885C59.8096 40.0379 60.9022 41.6334 62.558 41.9253L72.3075 43.6445C74.5602 44.0417 75.5575 46.7127 74.1162 48.4891L39.9893 90.5503C38.0388 92.9542 34.1676 91.1878 34.7052 88.1392L39.3427 61.8385C39.6304 60.2068 38.5409 58.6508 36.9092 58.3631L27.9445 56.7824C25.6918 56.3852 24.6946 53.7141 26.1358 51.9378Z" fill="#DCA3FF" style="fill:#DCA3FF;fill:color(display-p3 0.8623 0.6375 1.0000);fill-opacity:1;"/>
<path d="M26.1358 51.9378L59.9368 10.2783C61.9083 7.84845 65.8168 9.68133 65.2093 12.7509L60.136 38.3885C59.8096 40.0379 60.9022 41.6334 62.558 41.9253L72.3075 43.6445C74.5602 44.0417 75.5575 46.7127 74.1162 48.4891L39.9893 90.5503C38.0388 92.9542 34.1676 91.1878 34.7052 88.1392L39.3427 61.8385C39.6304 60.2068 38.5409 58.6508 36.9092 58.3631L27.9445 56.7824C25.6918 56.3852 24.6946 53.7141 26.1358 51.9378Z" fill="black" fill-opacity="0.75" style="fill:black;fill-opacity:0.75;"/>
<path d="M27.4761 55.5431L52.4597 10.5727C53.9792 7.83745 58.1466 8.96378 58.0815 12.0921L57.5639 36.9375C57.5288 38.6185 58.8819 40 60.5632 40H69.9015C72.189 40 73.6349 42.4573 72.524 44.4569L47.2892 89.8795C45.7858 92.5856 41.6667 91.5182 41.6667 88.4226V63C41.6667 61.3431 40.3236 60 38.6667 60H30.0986C27.8112 60 26.3652 57.5427 27.4761 55.5431Z" fill="#DCA3FF" style="fill:#DCA3FF;fill:color(display-p3 0.8623 0.6375 1.0000);fill-opacity:1;"/>
</g>
<defs>
<clipPath id="clip0_0_1">
<rect width="100" height="100" rx="5" fill="white" style="fill:white;fill-opacity:1;"/>
</clipPath>
</defs>
</svg>
