<?xml version="1.0" encoding="UTF-8" standalone="no"?>
<svg
   width="32"
   height="32"
   viewBox="0 0 32 32"
   fill="none"
   version="1.1"
   id="svg30"
   sodipodi:docname="fedi.svg"
   inkscape:version="1.3.2 (091e20ef0f, 2023-11-25)"
   xmlns:inkscape="http://www.inkscape.org/namespaces/inkscape"
   xmlns:sodipodi="http://sodipodi.sourceforge.net/DTD/sodipodi-0.dtd"
   xmlns="http://www.w3.org/2000/svg"
   xmlns:svg="http://www.w3.org/2000/svg">
  <defs
     id="defs30" />
  <sodipodi:namedview
     id="namedview30"
     pagecolor="#ffffff"
     bordercolor="#000000"
     borderopacity="0.25"
     inkscape:showpageshadow="2"
     inkscape:pageopacity="0.0"
     inkscape:pagecheckerboard="0"
     inkscape:deskcolor="#d1d1d1"
     inkscape:zoom="6.6622717"
     inkscape:cx="-11.707718"
     inkscape:cy="13.583955"
     inkscape:window-width="1536"
     inkscape:window-height="800"
     inkscape:window-x="0"
     inkscape:window-y="0"
     inkscape:window-maximized="1"
     inkscape:current-layer="svg30" />
  <path
     d="M6.04423 11.9342C5.72325 12.5487 5.2203 13.0491 4.6041 13.3672L12.5102 21.3015L14.4163 20.3359L6.04423 11.9342ZM16.4726 22.3995L14.5665 23.3651L18.5726 27.3855C18.8936 26.7709 19.3967 26.2704 20.013 25.9523L16.4726 22.3995Z"
     fill="#DCA3FF"
     id="path1"
     style="fill:#ffffff" />
  <path
     d="M6.04423 11.9342C5.72325 12.5487 5.2203 13.0491 4.6041 13.3672L12.5102 21.3015L14.4163 20.3359L6.04423 11.9342ZM16.4726 22.3995L14.5665 23.3651L18.5726 27.3855C18.8936 26.7709 19.3967 26.2704 20.013 25.9523L16.4726 22.3995Z"
     fill="white"
     fill-opacity="0.85"
     id="path2"
     style="fill:#ffffff" />
  <path
     d="M25.6199 15.0736L21.144 17.3413L21.474 19.4515L26.5384 16.8857C26.0529 16.3906 25.7321 15.7578 25.6199 15.0736ZM18.5457 18.6576L7.96272 24.0193C8.44832 24.5144 8.76915 25.1473 8.88134 25.8315L18.8757 20.768L18.5457 18.6576Z"
     fill="#DCA3FF"
     id="path3"
     style="fill:#ffffff" />
  <path
     d="M25.6199 15.0736L21.144 17.3413L21.474 19.4515L26.5384 16.8857C26.0529 16.3906 25.7321 15.7578 25.6199 15.0736ZM18.5457 18.6576L7.96272 24.0193C8.44832 24.5144 8.76915 25.1473 8.88134 25.8315L18.8757 20.768L18.5457 18.6576Z"
     fill="white"
     fill-opacity="0.85"
     id="path4"
     style="fill:#ffffff" />
  <path
     d="M15.1423 5.45043L10.0357 15.4165L11.5434 16.9296L16.9502 6.37783C16.2664 6.2622 15.635 5.93831 15.1423 5.45043ZM8.70751 18.0086L6.12088 23.0566C6.80461 23.1722 7.43594 23.4961 7.92864 23.9839L10.2151 19.5216L8.70751 18.0086Z"
     fill="#DCA3FF"
     id="path5"
     style="fill:#ffffff" />
  <path
     d="M15.1423 5.45043L10.0357 15.4165L11.5434 16.9296L16.9502 6.37783C16.2664 6.2622 15.635 5.93831 15.1423 5.45043ZM8.70751 18.0086L6.12088 23.0566C6.80461 23.1722 7.43594 23.4961 7.92864 23.9839L10.2151 19.5216L8.70751 18.0086Z"
     fill="white"
     fill-opacity="0.85"
     id="path6"
     style="fill:#ffffff" />
  <path
     d="M4.56018 13.3893C4.03933 13.65 3.45975 13.7711 2.87806 13.7409C2.76922 13.7348 2.66075 13.7235 2.55301 13.7069L4.0634 23.3647C4.58426 23.1041 5.16384 22.9829 5.74553 23.0132C5.8543 23.0192 5.96271 23.0306 6.07038 23.0471L4.56018 13.3893Z"
     fill="#DCA3FF"
     id="path7"
     style="fill:#ffffff" />
  <path
     d="M4.56018 13.3893C4.03933 13.65 3.45975 13.7711 2.87806 13.7409C2.76922 13.7348 2.66075 13.7235 2.55301 13.7069L4.0634 23.3647C4.58426 23.1041 5.16384 22.9829 5.74553 23.0132C5.8543 23.0192 5.96271 23.0306 6.07038 23.0471L4.56018 13.3893Z"
     fill="white"
     fill-opacity="0.85"
     id="path8"
     style="fill:#ffffff" />
  <path
     d="M8.88936 25.8793C8.92393 26.1036 8.93573 26.3307 8.92459 26.5574C8.89882 27.0198 8.7779 27.4718 8.56937 27.8854L18.2287 29.4349C18.1941 29.2106 18.1823 28.9834 18.1934 28.7568C18.2192 28.2944 18.3402 27.8423 18.5487 27.4288L8.88936 25.8793Z"
     fill="#DCA3FF"
     id="path9"
     style="fill:#ffffff" />
  <path
     d="M8.88936 25.8793C8.92393 26.1036 8.93573 26.3307 8.92459 26.5574C8.89882 27.0198 8.7779 27.4718 8.56937 27.8854L18.2287 29.4349C18.1941 29.2106 18.1823 28.9834 18.1934 28.7568C18.2192 28.2944 18.3402 27.8423 18.5487 27.4288L8.88936 25.8793Z"
     fill="white"
     fill-opacity="0.85"
     id="path10"
     style="fill:#ffffff" />
  <path
     d="M26.5724 16.921L22.1139 25.6221C22.7978 25.7378 23.4293 26.0617 23.9221 26.5496L28.3804 17.8486C27.6965 17.7329 27.0651 17.409 26.5724 16.921Z"
     fill="#DCA3FF"
     id="path11"
     style="fill:#ffffff" />
  <path
     d="M26.5724 16.921L22.1139 25.6221C22.7978 25.7378 23.4293 26.0617 23.9221 26.5496L28.3804 17.8486C27.6965 17.7329 27.0651 17.409 26.5724 16.921Z"
     fill="white"
     fill-opacity="0.85"
     id="path12"
     style="fill:#ffffff" />
  <path
     d="M20.4916 4.61456C20.1706 5.22919 19.6676 5.72971 19.0512 6.04773L25.9558 12.9767C26.2768 12.362 26.7798 11.8615 27.3961 11.5435L20.4916 4.61456Z"
     fill="#DCA3FF"
     id="path13"
     style="fill:#ffffff" />
  <path
     d="M20.4916 4.61456C20.1706 5.22919 19.6676 5.72971 19.0512 6.04773L25.9558 12.9767C26.2768 12.362 26.7798 11.8615 27.3961 11.5435L20.4916 4.61456Z"
     fill="white"
     fill-opacity="0.85"
     id="path14"
     style="fill:#ffffff" />
  <path
     d="M14.1898 3.60319L5.46163 8.02496C5.94716 8.51999 6.26795 9.15283 6.38016 9.83699L15.1082 5.41503C14.6227 4.92003 14.302 4.28727 14.1898 3.60319Z"
     fill="#DCA3FF"
     id="path15"
     style="fill:#ffffff" />
  <path
     d="M14.1898 3.60319L5.46163 8.02496C5.94716 8.51999 6.26795 9.15283 6.38016 9.83699L15.1082 5.41503C14.6227 4.92003 14.302 4.28727 14.1898 3.60319Z"
     fill="white"
     fill-opacity="0.85"
     id="path16"
     style="fill:#ffffff" />
  <path
     d="M19.0353 6.05575C18.5075 6.326 17.9177 6.45211 17.3255 6.42134C17.2268 6.41536 17.1285 6.40505 17.0308 6.39042L17.8039 11.3395L19.9135 11.6779L19.0353 6.05575ZM18.2533 14.2168L20.0813 25.918C20.5959 25.6657 21.1664 25.5489 21.7389 25.5787C21.8569 25.5854 21.9744 25.5983 22.0911 25.6174L20.363 14.5551L18.2533 14.2168Z"
     fill="#DCA3FF"
     id="path17"
     style="fill:#ffffff" />
  <path
     d="M19.0353 6.05575C18.5075 6.326 17.9177 6.45211 17.3255 6.42134C17.2268 6.41536 17.1285 6.40505 17.0308 6.39042L17.8039 11.3395L19.9135 11.6779L19.0353 6.05575ZM18.2533 14.2168L20.0813 25.918C20.5959 25.6657 21.1664 25.5489 21.7389 25.5787C21.8569 25.5854 21.9744 25.5983 22.0911 25.6174L20.363 14.5551L18.2533 14.2168Z"
     fill="white"
     fill-opacity="0.85"
     id="path18"
     style="fill:#ffffff" />
  <path
     d="M6.38636 9.87411C6.42227 10.1018 6.43468 10.3326 6.4234 10.5628C6.39797 11.0216 6.27887 11.4702 6.07344 11.8812L11.028 12.6767L12.0018 10.7756L6.38636 9.87411ZM14.8779 11.2373L13.904 13.1386L25.6106 15.0181C25.5769 14.7964 25.5656 14.5718 25.5766 14.3478C25.6026 13.8827 25.725 13.4281 25.9358 13.0127L14.8779 11.2373Z"
     fill="#DCA3FF"
     id="path19"
     style="fill:#ffffff" />
  <path
     d="M6.38636 9.87411C6.42227 10.1018 6.43468 10.3326 6.4234 10.5628C6.39797 11.0216 6.27887 11.4702 6.07344 11.8812L11.028 12.6767L12.0018 10.7756L6.38636 9.87411ZM14.8779 11.2373L13.904 13.1386L25.6106 15.0181C25.5769 14.7964 25.5656 14.5718 25.5766 14.3478C25.6026 13.8827 25.725 13.4281 25.9358 13.0127L14.8779 11.2373Z"
     fill="white"
     fill-opacity="0.85"
     id="path20"
     style="fill:#ffffff" />
  <path
     d="M17.3421 6.11575C19.0302 6.20767 20.4732 4.91416 20.5652 3.22662C20.6571 1.53907 19.3632 0.0965314 17.6751 0.00461091C15.987 -0.0873096 14.544 1.2062 14.452 2.89374C14.3601 4.58129 15.654 6.02383 17.3421 6.11575Z"
     fill="#DCA3FF"
     id="path21"
     style="fill:#ffffff" />
  <path
     d="M17.3421 6.11575C19.0302 6.20767 20.4732 4.91416 20.5652 3.22662C20.6571 1.53907 19.3632 0.0965314 17.6751 0.00461091C15.987 -0.0873096 14.544 1.2062 14.452 2.89374C14.3601 4.58129 15.654 6.02383 17.3421 6.11575Z"
     fill="white"
     fill-opacity="0.85"
     id="path22"
     style="fill:#ffffff" />
  <path
     d="M28.7723 17.5865C30.4604 17.6784 31.9034 16.3849 31.9954 14.6974C32.0873 13.0098 30.7934 11.5673 29.1053 11.4753C27.4172 11.3834 25.9742 12.6769 25.8823 14.3645C25.7903 16.052 27.0842 17.4946 28.7723 17.5865Z"
     fill="#DCA3FF"
     id="path23"
     style="fill:#ffffff" />
  <path
     d="M28.7723 17.5865C30.4604 17.6784 31.9034 16.3849 31.9954 14.6974C32.0873 13.0098 30.7934 11.5673 29.1053 11.4753C27.4172 11.3834 25.9742 12.6769 25.8823 14.3645C25.7903 16.052 27.0842 17.4946 28.7723 17.5865Z"
     fill="white"
     fill-opacity="0.85"
     id="path24"
     style="fill:#ffffff" />
  <path
     d="M21.3892 31.9954C23.0773 32.0873 24.5203 30.7938 24.6122 29.1063C24.7042 27.4187 23.4103 25.9762 21.7222 25.8842C20.0341 25.7923 18.5911 27.0858 18.4991 28.7734C18.4072 30.4609 19.7011 31.9035 21.3892 31.9954Z"
     fill="#DCA3FF"
     id="path25"
     style="fill:#ffffff" />
  <path
     d="M21.3892 31.9954C23.0773 32.0873 24.5203 30.7938 24.6122 29.1063C24.7042 27.4187 23.4103 25.9762 21.7222 25.8842C20.0341 25.7923 18.5911 27.0858 18.4991 28.7734C18.4072 30.4609 19.7011 31.9035 21.3892 31.9954Z"
     fill="white"
     fill-opacity="0.85"
     id="path26"
     style="fill:#ffffff" />
  <path
     d="M5.39591 29.4298C7.084 29.5218 8.52701 28.2283 8.61896 26.5407C8.71091 24.8532 7.41698 23.4106 5.72889 23.3187C4.0408 23.2268 2.59779 24.5203 2.50584 26.2078C2.41389 27.8954 3.70782 29.3379 5.39591 29.4298Z"
     fill="#DCA3FF"
     id="path27"
     style="fill:#ffffff" />
  <path
     d="M5.39591 29.4298C7.084 29.5218 8.52701 28.2283 8.61896 26.5407C8.71091 24.8532 7.41698 23.4106 5.72889 23.3187C4.0408 23.2268 2.59779 24.5203 2.50584 26.2078C2.41389 27.8954 3.70782 29.3379 5.39591 29.4298Z"
     fill="white"
     fill-opacity="0.85"
     id="path28"
     style="fill:#ffffff" />
  <path
     d="M2.89468 13.4353C4.58278 13.5273 6.02579 12.2338 6.11774 10.5462C6.20969 8.85867 4.91576 7.41612 3.22767 7.3242C1.53957 7.23228 0.0965628 8.52579 0.00461241 10.2133C-0.0873379 11.9009 1.20659 13.3434 2.89468 13.4353Z"
     fill="#DCA3FF"
     id="path29"
     style="fill:#ffffff" />
  <path
     d="M2.89468 13.4353C4.58278 13.5273 6.02579 12.2338 6.11774 10.5462C6.20969 8.85867 4.91576 7.41612 3.22767 7.3242C1.53957 7.23228 0.0965628 8.52579 0.00461241 10.2133C-0.0873379 11.9009 1.20659 13.3434 2.89468 13.4353Z"
     fill="white"
     fill-opacity="0.85"
     id="path30"
     style="fill:#ffffff" />
</svg>
