<?xml version="1.0" encoding="UTF-8" standalone="no"?>
<svg
   width="45.745464"
   height="82.381149"
   viewBox="0 0 45.745464 82.381149"
   fill="none"
   version="1.1"
   id="svg3"
   sodipodi:docname="logo_monochrome.svg"
   inkscape:version="1.3.2 (091e20ef0f, 2023-11-25)"
   xmlns:inkscape="http://www.inkscape.org/namespaces/inkscape"
   xmlns:sodipodi="http://sodipodi.sourceforge.net/DTD/sodipodi-0.dtd"
   xmlns="http://www.w3.org/2000/svg"
   xmlns:svg="http://www.w3.org/2000/svg">
  <sodipodi:namedview
     id="namedview1"
     pagecolor="#ffffff"
     bordercolor="#000000"
     borderopacity="0.25"
     inkscape:showpageshadow="2"
     inkscape:pageopacity="0.0"
     inkscape:pagecheckerboard="0"
     inkscape:deskcolor="#d1d1d1"
     inkscape:zoom="7.3196357"
     inkscape:cx="22.815343"
     inkscape:cy="41.190575"
     inkscape:window-width="1536"
     inkscape:window-height="800"
     inkscape:window-x="0"
     inkscape:window-y="0"
     inkscape:window-maximized="1"
     inkscape:current-layer="svg3" />
  <defs
     id="defs3" />
  <path
     fill-rule="evenodd"
     clip-rule="evenodd"
     d="m 9.7341783,52.552314 c -2.644792,7.364833 -5.417932,14.688739 -7.982072,22.07929 -1.08580796,3.111233 4.517734,5.913115 5.597227,2.714713 0.32055,-0.638561 0.82526,-2.027034 -0.438904,-1.616143 -1.590548,1.562257 -3.953432,0.728617 -2.789588,-1.907816 2.489736,-6.952525 5.128121,-13.865221 7.5249367,-20.842644 0.295141,-0.795472 -1.469888,-0.276256 -1.9115997,-0.4274 z m 25.9475997,-23.2 c 2.704714,-7.076669 5.548214,-14.106139 8.165682,-21.2124776 1.08171,-3.290841 -4.572407,-5.919145 -5.890698,-2.689494 0.04752,0.660882 -1.108183,3.395455 0.04692,2.147471 1.036109,-1.71173 4.544246,-2.284608 3.725527,0.625911 L 33.537878,29.349314 c 0.714525,0.0071 1.429302,9.62e-4 2.1439,0.003 z"
     fill="#ffffff"
     id="path1"
     style="fill:#1a1a1a;fill-opacity:1" />
  <path
     fill-rule="evenodd"
     clip-rule="evenodd"
     d="m 12.339978,52.882514 c -1.439843,8.338945 -2.9991497,16.66188 -4.3638377,25.010898 -0.446683,2.957184 5.0505157,4.287439 5.2625377,1.19355 0,-1.334783 0,-2.669565 0,-4.004348 -0.7525,0.927467 -1.505,1.854933 -2.2575,2.7824 0.72114,-4.459007 1.699597,-8.895501 2.2575,-13.368789 -0.04112,-3.481695 0.08337,-6.973888 -0.06427,-10.44883 -0.121567,-0.473859 -0.425909,-0.896524 -0.83443,-1.164881 z m 19.5044,-35.002 c 0.8865,-4.479733 1.773,-8.9594666 2.6595,-13.4391996 -0.814067,1.0033 -1.628133,2.0066 -2.4422,3.0099 0.04095,-1.632104 0.05431,-3.27431 0.1125,-4.9001 1.964774,-2.72562912 6.494252,-0.01186 5.162787,3.027428 -1.551795,7.8418566 -3.103591,15.6837146 -4.655387,23.5255716 -1.720008,-1.241651 -0.77392,-3.574529 -0.959062,-5.37542 0.04062,-1.949393 0.08124,-3.898787 0.121862,-5.84818 z"
     fill="#ffffff"
     id="path2"
     style="fill:#808080;fill-opacity:1" />
  <path
     d="M 0.38147834,46.495414 C 8.7093113,31.505281 17.037145,16.515147 25.364978,1.5250144 c 1.461647,-3.0253528 6.393507,-1.13932592 5.610018,2.084966 -0.131668,8.2974076 -0.428587,16.5997886 -0.45595,24.8940566 0.416441,2.554879 3.199634,2.553876 5.212188,2.448277 2.627853,0.06343 5.277864,-0.132882 7.890623,0.109493 2.522866,0.660113 2.646255,3.784788 1.1664,5.501243 -8.314768,14.902705 -16.523572,29.870217 -24.904657,44.732363 -1.895887,2.50292 -6.043304,0.28565 -5.311522,-2.674751 -0.04008,-8.423328 0.08053,-16.854736 -0.06095,-25.272966 -0.483345,-2.609574 -3.346188,-2.467819 -5.3903687,-2.395382 -2.428856,-0.11767 -4.925084,0.260481 -7.303485,-0.239953 -1.59283096,-0.64655 -2.32114196,-2.734125 -1.43579596,-4.216947 z"
     fill="#ffffff"
     id="path3"
     style="fill:#ffffff;fill-opacity:1" />
</svg>
